<svg width="1263" height="366" xmlns="http://www.w3.org/2000/svg" data-name="Secondary logo">
 <title>Horizontal_Glitched</title>

 <g>
  <title>Layer 1</title>
  <g id="svg_33">
   <polygon class="cls-1" points="290.56097412109375,179.20001220703125 315.5389709472656,164.6929931640625 230.5679931640625,106.5830078125 227.38302612304688,149.5780029296875 290.56097412109375,179.20001220703125 " fill="#5e0022" id="svg_1"/>
   <polygon class="cls-2" points="82.91999816894531,67.4310302734375 62.009002685546875,55.2869873046875 51.15699768066406,255.738037109375 135.156005859375,303.11199951171875 191.28897094726562,273.2740478515625 110.4739990234375,219.90899658203125 82.91999816894531,67.4310302734375 " fill="#8e002c" id="svg_2"/>
   <polygon class="cls-1" points="315.5389709472656,273.2740478515625 157.76898193359375,364.36602783203125 0,273.2740478515625 62.009002685546875,237.47003173828125 140.64202880859375,283.13604736328125 161.49298095703125,271.10101318359375 82.91999816894531,225.39404296875 157.76898193359375,182.18304443359375 315.5389709472656,273.2740478515625 " fill="#5e0022" id="svg_3"/>
   <polygon class="cls-3" points="0,91.09100341796875 62.009002685546875,55.2869873046875 62.009002685546875,237.47003173828125 0,273.2740478515625 0,91.09100341796875 " fill="#c10033" id="svg_4"/>
   <polygon class="cls-3" points="157.76898193359375,0 157.76898193359375,182.18304443359375 82.91999816894531,225.39404296875 82.91999816894531,43.21099853515625 157.76898193359375,0 " fill="#c10033" id="svg_5"/>
   <polygon class="cls-2" points="236.66400146484375,118.7449951171875 236.66400146484375,143.01702880859375 315.5389709472656,188.84503173828125 315.5389709472656,273.2740478515625 157.76898193359375,182.18304443359375 157.76898193359375,0 315.5389709472656,91.09100341796875 315.5389709472656,164.6929931640625 236.66400146484375,118.7449951171875 " fill="#8e002c" id="svg_6"/>
   <path class="cls-3" d="m399.1042,194.25972l0,28.1625l89.5958,0l0,8.96l-89.5958,0l0,35.8381l125.4622,0l0,-72.96l-125.4622,-0.0006z" fill="#c10033" id="svg_7"/>
   <rect class="cls-3" x="785.6498" y="141.75832" width="35.8378" height="52.5013" fill="#c10033" id="svg_8"/>
   <path class="cls-3" d="m1224.78,110.97202c0,-10.2155 -7.4808,-17.6121 -17.8644,-17.6121l-11.7506,0l0,35.2242l11.7506,0c10.3836,0 17.8644,-7.3961 17.8644,-17.6121zm-25.1762,13.4812l0,-26.9625l7.1728,0c7.9264,0 13.5087,5.6661 13.5087,13.4813c0,7.7872 -5.61,13.4812 -13.5087,13.4812l-7.1728,0z" fill="#c10033" id="svg_9"/>
   <polygon class="cls-3" points="964.89599609375,141.75799560546875 1090.3580322265625,141.75799560546875 1090.3580322265625,177.59600830078125 1045.56103515625,177.59600830078125 1045.56103515625,194.260009765625 1009.695068359375,194.260009765625 1009.695068359375,177.59600830078125 964.89599609375,177.59600830078125 964.89599609375,141.75799560546875 " fill="#c10033" id="svg_10"/>
   <polygon class="cls-3" points="468.79998779296875,128.58404541015625 464.47198486328125,128.58404541015625 464.47198486328125,93.36004638671875 468.4639892578125,93.36004638671875 488.22601318359375,120.51800537109375 488.22601318359375,93.36004638671875 492.551025390625,93.36004638671875 492.551025390625,128.58404541015625 488.84002685546875,128.58404541015625 468.79998779296875,101.09100341796875 468.79998779296875,128.58404541015625 " fill="#c10033" id="svg_11"/>
   <polygon class="cls-3" points="382.35699462890625,141.75799560546875 507.82000732421875,141.75799560546875 507.82000732421875,177.59600830078125 418.196044921875,177.59600830078125 418.196044921875,186.5560302734375 507.82000732421875,186.5560302734375 507.82000732421875,194.260009765625 382.35699462890625,194.260009765625 382.35699462890625,141.75799560546875 " fill="#c10033" id="svg_12"/>
   <path class="cls-3" d="m870.2494,114.79582l8.01,0l8.0954,13.7883l4.9676,0l-8.4293,-14.2906a10.3845,10.3845 0 0 0 7.76,-10.16c0,-6.28 -4.8845,-10.7738 -11.4726,-10.7738l-13.37,0l0,35.2242l4.4389,0l0,-13.7881zm0,-17.2492l8.7073,0c4.2984,0 7.2013,2.7632 7.2013,6.5314c0,3.7959 -2.9029,6.5311 -7.2013,6.5311l-8.7073,0l0,-13.0625z" fill="#c10033" id="svg_13"/>
   <polygon class="cls-3" points="634.0070190429688,124.34100341796875 650.0830078125,124.34100341796875 650.0830078125,128.58404541015625 629.5969848632812,128.58404541015625 629.5969848632812,93.36004638671875 649.5530395507812,93.36004638671875 649.5530395507812,97.5469970703125 634.0070190429688,97.5469970703125 634.0070190429688,108.4320068359375 648.2420043945312,108.4320068359375 648.2420043945312,112.50701904296875 634.0070190429688,112.50701904296875 634.0070190429688,124.34100341796875 " fill="#c10033" id="svg_14"/>
   <path class="cls-3" d="m977.9876,110.97202c0,-10.4109 -7.7874,-18.2261 -18.45,-18.2261s-18.42,7.8152 -18.42,18.2261s7.7587,18.1983 18.42,18.1983s18.45,-7.7874 18.45,-18.1983zm-18.45,13.872a13.886,13.886 0 1 1 13.9285,-13.872a13.5582,13.5582 0 0 1 -13.9289,13.872l0.0004,0z" fill="#c10033" id="svg_15"/>
   <path class="cls-3" d="m707.1067,114.79582l8.0383,0l8.0667,13.7883l4.9963,0l-8.4293,-14.2906a10.3834,10.3834 0 0 0 7.7588,-10.16c0,-6.28 -4.8845,-10.7738 -11.4712,-10.7738l-13.37,0l0,35.2242l4.41,0l0.0004,-13.7881zm0,-17.2492l8.7359,0c4.2985,0 7.2014,2.7632 7.2014,6.5314c0,3.7959 -2.9029,6.5311 -7.2014,6.5311l-8.7359,0l0,-13.0625z" fill="#c10033" id="svg_16"/>
   <polygon class="cls-3" points="1199.43603515625,141.75799560546875 1224.780029296875,141.75799560546875 1224.780029296875,167.1300048828125 1197.6490478515625,194.260009765625 1126.4749755859375,194.260009765625 1099.3179931640625,167.1300048828125 1099.3179931640625,141.75799560546875 1124.68896484375,141.75799560546875 1162.06201171875,179.13201904296875 1199.43603515625,141.75799560546875 " fill="#c10033" id="svg_17"/>
   <path class="cls-3" d="m382.3573,115.46572l0,-22.1058l4.4389,0l0,21.7709c0,5.8056 3.9073,9.7132 9.4051,9.7132c5.4432,0 9.3506,-3.9076 9.3506,-9.7132l0,-21.7709l4.4388,0l0,22.1058c0,8.01 -5.89,13.7046 -13.7894,13.7046c-7.9537,0 -13.844,-5.6941 -13.844,-13.7046z" fill="#c10033" id="svg_18"/>
   <polygon class="cls-3" points="516.7789916992188,141.75799560546875 642.2410278320312,141.75799560546875 642.2410278320312,194.260009765625 606.4020385742188,194.260009765625 606.4020385742188,177.59600830078125 552.6170043945312,177.59600830078125 552.6170043945312,194.260009765625 516.7789916992188,194.260009765625 516.7789916992188,141.75799560546875 " fill="#c10033" id="svg_19"/>
   <polygon class="cls-3" points="830.447021484375,141.75799560546875 955.93701171875,141.75799560546875 955.93701171875,177.59600830078125 866.31298828125,177.59600830078125 866.31298828125,186.5560302734375 955.93701171875,186.5560302734375 955.93701171875,194.260009765625 830.447021484375,194.260009765625 830.447021484375,141.75799560546875 " fill="#c10033" id="svg_20"/>
   <path class="cls-3" d="m577.0393,110.97202c0,-10.2155 -7.4794,-17.6121 -17.863,-17.6121l-11.7506,0l0,35.2242l11.7506,0c10.355,0 17.863,-7.3961 17.863,-17.6121zm-25.1761,13.4812l0,-26.9625l7.1741,0c7.8978,0 13.5087,5.6661 13.5087,13.4813c0,7.7872 -5.6109,13.4812 -13.5087,13.4812l-7.1741,0z" fill="#c10033" id="svg_21"/>
   <polygon class="cls-3" points="651.2009887695312,141.75799560546875 776.6900024414062,141.75799560546875 776.6900024414062,194.260009765625 740.8240356445312,194.260009765625 740.8240356445312,177.59600830078125 687.0660400390625,177.59600830078125 687.0660400390625,194.260009765625 651.2009887695312,194.260009765625 651.2009887695312,141.75799560546875 " fill="#c10033" id="svg_22"/>
   <path class="cls-3" d="m795.8658,129.17032c-10.3551,0 -17.8644,-7.7036 -17.8644,-18.1983c0,-10.4668 7.5366,-18.17 17.78,-18.17c8.4851,0 15.602,5.3312 17.1652,12.8394l-4.5778,0c-1.506,-5.1078 -6.5309,-8.5131 -12.5029,-8.5131c-7.7874,0 -13.37,5.75 -13.37,13.8441c0,8.178 5.4419,13.872 13.37,13.872c6.4749,0 11.5543,-3.824 12.8109,-9.5737l-14.0676,0l0,-4.1867l18.8958,0c-0.2232,10.606 -7.4518,18.0863 -17.6392,18.0863z" fill="#c10033" id="svg_23"/>
   <path class="cls-3" d="m1030.098,115.46572l0,-22.1058l4.4647,0l0,21.7709c0,5.8056 3.88,9.7132 9.3792,9.7132c5.4419,0 9.3493,-3.9076 9.3493,-9.7132l0,-21.7709l4.4661,0l0,22.1058c0,8.01 -5.9162,13.7046 -13.8154,13.7046c-7.955,0 -13.8439,-5.6941 -13.8439,-13.7046z" fill="#c10033" id="svg_24"/>
   <polygon class="cls-3" points="1116.5390625,128.58404541015625 1112.2130126953125,128.58404541015625 1112.2130126953125,93.36004638671875 1116.2039794921875,93.36004638671875 1135.9940185546875,120.51800537109375 1135.9940185546875,93.36004638671875 1140.3189697265625,93.36004638671875 1140.3189697265625,128.58404541015625 1136.5799560546875,128.58404541015625 1116.5390625,101.09100341796875 1116.5390625,128.58404541015625 " fill="#c10033" id="svg_25"/>
   <path class="cls-3" d="m623.149,194.25972l0,37.1221l-53.7853,0l0,-37.1221l-35.8378,0l0,72.96l125.4623,0l0,-72.96l-35.8392,0z" fill="#c10033" id="svg_26"/>
   <path class="cls-3" d="m757.5707,231.38182l-53.758,0l0,-37.1221l-35.8651,0l0,72.96l125.49,0l0,-53.757l-35.8669,0l0,17.9191zm0,-37.1221l0,1.2558l35.8664,0l0,-1.2558l-35.8664,0z" fill="#c10033" id="svg_27"/>
   <path class="cls-3" d="m802.3966,194.25972l0,72.96l35.8378,0l0,-72.96l-35.8378,0z" fill="#c10033" id="svg_28"/>
   <path class="cls-3" d="m972.6834,222.42222l0,-28.1625l-125.49,0l0,72.96l125.49,0l0,-35.8379l-89.6231,0l0,-8.96l89.6231,0.0004z" fill="#c10033" id="svg_29"/>
   <path class="cls-3" d="m1026.4414,194.25972l0,72.96l35.8664,0l0,-72.96l-35.8664,0z" fill="#c10033" id="svg_30"/>
   <path class="cls-3" d="m1143.2223,194.25972l17.6681,17.6678l0,55.2924l35.8378,0l0,-55.2919l17.6681,-17.6678l-71.174,-0.0005z" fill="#c10033" id="svg_31"/>
   <rect class="cls-3" x="359.9618" y="192.86442" width="901.0175" height="2.7911" fill="#c10033" id="svg_32"/>
  </g>
 </g>
</svg>