<svg id="Main_logo" data-name="Main logo" xmlns="http://www.w3.org/2000/svg" width="1500" height="1500" viewBox="0 0 1500 1500"><defs><style>.cls-1{fill:#5e0022;}.cls-2{fill:#8e002c;}.cls-3{fill:#c10033;}</style></defs><title>Standalone Icon</title><polygon class="cls-1" points="1129.625 741.145 1203.881 698.019 951.274 525.264 941.806 653.083 1129.625 741.145"/><polygon class="cls-2" points="512.333 408.871 450.167 372.768 417.907 968.685 667.627 1109.522 834.501 1020.817 594.249 862.169 512.333 408.871"/><polygon class="cls-1" points="1203.881 1020.817 734.852 1291.62 265.822 1020.817 450.167 914.375 683.934 1050.135 745.921 1014.355 512.333 878.475 734.852 750.014 1203.881 1020.817"/><polygon class="cls-3" points="265.822 479.21 450.167 372.768 450.167 914.375 265.822 1020.817 265.822 479.21"/><polygon class="cls-3" points="734.852 208.407 734.852 750.014 512.333 878.475 512.333 336.868 734.852 208.407"/><polygon class="cls-2" points="969.397 561.42 969.397 633.579 1203.881 769.818 1203.881 1020.817 734.852 750.014 734.852 208.407 1203.881 479.21 1203.881 698.019 969.397 561.42"/></svg>